<?xml version="1.0" encoding="UTF-8"?> <svg xmlns="http://www.w3.org/2000/svg" id="katman_1" data-name="katman 1" viewBox="0 0 293.98 97.31"><defs><style>.cls-1{fill:#ff914d;}.cls-2{fill:#ffbd59;}.cls-3{fill:#ffde59;}</style></defs><path class="cls-1" d="M98.8,35.94H89.08a51.48,51.48,0,0,0-4.4-13.12A27.28,27.28,0,0,0,78,14.08a13.11,13.11,0,0,0-17.79,0,27.28,27.28,0,0,0-6.64,8.74C49.93,30,47.89,39.56,47.86,49.63H46.27a71.3,71.3,0,0,1,1.3-13.69H39.49L36,55.84c-5.65-5.51-17.55-20,5-26.48-7.94,1-13.6,3.88-15.57,8.72-3.27,8,4.52,19.32,18.74,29.28A63.33,63.33,0,0,1,69.52,51.24c10.8-3.8,20.23-3.48,31.5-2.66ZM69.15,14.16c8.33,0,15.35,11,17.5,26-.52,0-1,0-1.55,0-.21-1.46-.46-2.89-.75-4.27h-7a2.47,2.47,0,0,1-2.6,0H64a2.41,2.41,0,0,1-1.3.37,2.37,2.37,0,0,1-1.29-.37h-9C55.16,23.14,61.62,14.16,69.15,14.16Z" transform="translate(-12.78 -10.6)"></path><path class="cls-2" d="M68.75,49.74A54.07,54.07,0,0,1,101,48.58l6.58,37.55a44.6,44.6,0,0,0,14.32-1.45C111.81,90.54,90.17,89,67.6,79.89A119.13,119.13,0,0,1,44.13,67.36,53.88,53.88,0,0,1,68.75,49.74Z" transform="translate(-12.78 -10.6)"></path><path class="cls-1" d="M12.87,42.59C14.57,28.17,32,29.07,32,29.07c-7.54,1.19-12.9,4.18-14.85,9-3.75,9.23,6.33,22.53,24,33.63-1.94,7.08-3.75,11-5.11,17.19a168.07,168.07,0,0,0-2.86,18.67,7.21,7.21,0,0,1-4.77-8l4.76-27.13c-6.77-5.41-21.56-18.59-20.24-29.75Z" transform="translate(-12.78 -10.6)"></path><path class="cls-2" d="M41.09,71.66A128.45,128.45,0,0,0,61.57,82.05c17.65,7.12,34.76,9.84,46.76,8.25l1.6,9.17a7.21,7.21,0,0,1-7.12,8.44H35.48a7.35,7.35,0,0,1-2.36-.39,53.67,53.67,0,0,1,8-35.86Z" transform="translate(-12.78 -10.6)"></path><path class="cls-3" d="M62.73,28.24a5.58,5.58,0,0,0-5.56,5.57,5.44,5.44,0,0,0,.43,2.13,5.55,5.55,0,0,0,10.28,0,5.58,5.58,0,0,0-5.15-7.7Zm0,8.07a2.37,2.37,0,0,1-1.29-.37,2.47,2.47,0,0,1-1.21-2.13,2.51,2.51,0,0,1,5,0A2.47,2.47,0,0,1,64,35.94,2.41,2.41,0,0,1,62.73,36.31Z" transform="translate(-12.78 -10.6)"></path><path class="cls-3" d="M76,28.24a5.59,5.59,0,0,0-5.57,5.57,5.44,5.44,0,0,0,.43,2.13A5.57,5.57,0,1,0,76,28.24Zm0,8.07a2.41,2.41,0,0,1-1.3-.37,2.5,2.5,0,1,1,2.6,0A2.41,2.41,0,0,1,76,36.31Z" transform="translate(-12.78 -10.6)"></path><path class="cls-1" d="M68.83,26.94a6.82,6.82,0,0,0-.38-1.24,6.64,6.64,0,0,0-.61-1.15,6.76,6.76,0,0,0-.83-1,6.65,6.65,0,0,0-1-.83c-.1-.07-.22-.11-.32-.17v0a5.23,5.23,0,0,0-.82-.41h0a6,6,0,0,0-.71-.25l-.06,0-.14,0-.34-.08-.24,0-.24,0a4.91,4.91,0,0,0-.67,0H62.3a6.3,6.3,0,0,0-.75.05l-.22,0-.32,0a1.83,1.83,0,0,0-.25.06l-.14,0-.09,0c-.22.06-.44.13-.65.21l-.1,0h0l-.06,0a6.3,6.3,0,0,0-.69.34l-.27.18-.13.07-.11.09a6.74,6.74,0,0,0-.88.72h0l0,0a7.11,7.11,0,0,0-.7.86,1.27,1.27,0,0,0-.1.12s0,.08-.07.12l-.15.23a6.43,6.43,0,0,0-.39.79h0a6.28,6.28,0,0,0-.25.73l0,.08,0,.15c0,.09-.05.19-.07.28a2.89,2.89,0,0,0,0,.29,1.57,1.57,0,0,0,0,.23,6.81,6.81,0,0,0-.05.78h2.66a4.27,4.27,0,0,1,.07-.71l0-.13a4.07,4.07,0,0,1,.2-.68,5,5,0,0,1,.3-.56,4.15,4.15,0,0,1,.56-.73h0l.09-.07a4.14,4.14,0,0,1,.66-.51c.18-.1.35-.2.53-.28h0a5,5,0,0,1,.69-.21l.13,0a4.93,4.93,0,0,1,.66-.07h.06a4.15,4.15,0,0,1,.7.07l.13,0a4,4,0,0,1,.67.2h0a4.42,4.42,0,0,1,.68.36,4.16,4.16,0,0,1,.61.5,4.59,4.59,0,0,1,.49.6,3.6,3.6,0,0,1,.37.7,4,4,0,0,1,.23.74,4.13,4.13,0,0,1,.08.78H69A7.16,7.16,0,0,0,68.83,26.94Z" transform="translate(-12.78 -10.6)"></path><path class="cls-1" d="M82.55,26.94a6.82,6.82,0,0,0-.38-1.24,6.64,6.64,0,0,0-.61-1.15,6.76,6.76,0,0,0-.83-1,6.65,6.65,0,0,0-1-.83c-.1-.07-.22-.11-.32-.17v0a5.23,5.23,0,0,0-.82-.41h0a6,6,0,0,0-.71-.25l-.06,0-.14,0-.34-.08-.24,0-.24,0a4.91,4.91,0,0,0-.67,0H76a6.3,6.3,0,0,0-.75.05l-.22,0-.32,0a1.83,1.83,0,0,0-.25.06l-.14,0-.09,0c-.22.06-.44.13-.65.21l-.1,0h0l-.06,0a6.3,6.3,0,0,0-.69.34l-.27.18-.13.07-.11.09a6.74,6.74,0,0,0-.88.72h0l0,0a7.11,7.11,0,0,0-.7.86,1.27,1.27,0,0,0-.1.12s0,.08-.07.12l-.15.23a6.43,6.43,0,0,0-.39.79h0a6.28,6.28,0,0,0-.25.73l0,.08,0,.14c0,.1,0,.2-.07.29a2.89,2.89,0,0,0,0,.29,1.57,1.57,0,0,0,0,.23,6.81,6.81,0,0,0,0,.78H72a4.27,4.27,0,0,1,.07-.71l0-.13a4.07,4.07,0,0,1,.2-.68,5,5,0,0,1,.3-.56,4.15,4.15,0,0,1,.56-.73h0l.09-.07a4.14,4.14,0,0,1,.66-.51c.18-.1.35-.2.53-.28h0a5,5,0,0,1,.69-.21l.13,0a4.76,4.76,0,0,1,.66-.07H76a4.15,4.15,0,0,1,.7.07l.13,0a4,4,0,0,1,.67.2h0a4.1,4.1,0,0,1,.69.36,4.16,4.16,0,0,1,.61.5,4.59,4.59,0,0,1,.49.6,3.6,3.6,0,0,1,.37.7,4,4,0,0,1,.23.74,4.13,4.13,0,0,1,.08.78h2.66A7.16,7.16,0,0,0,82.55,26.94Z" transform="translate(-12.78 -10.6)"></path><path class="cls-1" d="M62.59,31.94a1.73,1.73,0,1,0,1.72,1.72A1.72,1.72,0,0,0,62.59,31.94Z" transform="translate(-12.78 -10.6)"></path><circle class="cls-1" cx="63.11" cy="23.06" r="1.73"></circle><path d="M219.63,52.51h-4.69a4.57,4.57,0,0,0-.83.06c-.1,0-.21.16-.26.27a.93.93,0,0,0-.06.41v9.52a2.71,2.71,0,0,0,0,.41.41.41,0,0,0,.34.37l1.93,0c.37,0,.73,0,1.1.06a.32.32,0,0,1,.21.31c0,.13-.06.28-.22.32a3.33,3.33,0,0,1-.54.07c-3.08,0-6.17,0-9.25,0a2.52,2.52,0,0,1-.54-.08c-.16,0-.19-.18-.22-.31a.34.34,0,0,1,.22-.31c.27,0,.54,0,.82-.06.55,0,1.1,0,1.65,0a.47.47,0,0,0,.43-.45c0-.37,0-.74,0-1.1V42.26c0-.27,0-.55,0-.83,0-.58-.15-.71-.74-.72h-1.66a5,5,0,0,1-.54-.08c-.11,0-.15-.08-.16-.19s0-.33.11-.36A1.34,1.34,0,0,1,207,40l.41,0c3,0,6.08,0,9.11,0a2.61,2.61,0,0,1,.68.11c.14,0,.17.2.15.34s-.08.18-.14.2a1.9,1.9,0,0,1-.53.09c-.78,0-1.57,0-2.35,0-.47,0-.55.27-.57.61,0,.19,0,.37,0,.55v8.56c0,.28,0,.55,0,.83a.46.46,0,0,0,.37.36l.27,0h9.8a8,8,0,0,0,1.1-.06.45.45,0,0,0,.28-.26,1.64,1.64,0,0,0,.07-.54c0-3.08,0-6.17,0-9.25,0-.71-.11-.82-.77-.83H223l-.69,0a.33.33,0,0,1-.26-.27c0-.18.14-.4.28-.41a3,3,0,0,1,.41,0H232a4.91,4.91,0,0,1,.55,0,.38.38,0,0,1,.29.4.31.31,0,0,1-.26.27c-.22,0-.45,0-.68,0h-1.38c-.78,0-.86.1-.88.87V62c0,1.69-.11,1.56,1.56,1.57.46,0,.92,0,1.38,0a.3.3,0,0,1,.26.26c0,.2-.11.41-.26.42a4.89,4.89,0,0,1-.55,0h-9.25a1.15,1.15,0,0,1-.52-.1c-.1,0-.16-.2-.2-.32a.34.34,0,0,1,.22-.31l1.24,0,1.79,0a.4.4,0,0,0,.37-.34c0-.23,0-.46,0-.69v-9a3.21,3.21,0,0,0-.05-.69.4.4,0,0,0-.25-.27,3.8,3.8,0,0,0-.82-.08Z" transform="translate(-12.78 -10.6)"></path><path d="M256.89,60.56V50.2c0-.37,0-.74-.05-1.1a.41.41,0,0,0-.37-.35c-.22,0-.45,0-.68,0l-1.25,0c-.16,0-.28-.12-.24-.24a.32.32,0,0,1,.28-.25L260,47.14a.39.39,0,0,1,.46.38c0,.14,0,.28,0,.42,0,.46,0,.92,0,1.38a.28.28,0,0,0,.16.18c.06,0,.15,0,.22-.1a1.12,1.12,0,0,0,.17-.21,5.58,5.58,0,0,1,4.53-2.25,7.1,7.1,0,0,1,2.46.29,5.62,5.62,0,0,1,3,2.15,8.56,8.56,0,0,1,1.35,3,13.06,13.06,0,0,1-.28,7,8,8,0,0,1-2.89,4.11,6.79,6.79,0,0,1-3.85,1.34,6.93,6.93,0,0,1-4.45-1.17.26.26,0,0,0-.39.22c0,.18,0,.37,0,.55V71.3c0,.23,0,.46,0,.69a.43.43,0,0,0,.37.35l.82,0c.55,0,1.11,0,1.66,0a1.29,1.29,0,0,1,.38.12s.07.07.06.1,0,.2-.07.23a1,1,0,0,1-.39.13h-8c-.32,0-.63-.06-.95-.09-.11,0-.14-.09-.14-.21s0-.18.12-.2a4,4,0,0,1,.68-.1c.41,0,.82,0,1.24,0s.57-.2.58-.61,0-.83,0-1.24Zm3.59-3.71h0V61c0,.37,0,.74,0,1.11a.88.88,0,0,0,.57.85,5.46,5.46,0,0,0,1.72.49,4.51,4.51,0,0,0,4-1.42,6.38,6.38,0,0,0,1.48-2.62,15,15,0,0,0,.52-3.4,12,12,0,0,0-.26-3.16,7.21,7.21,0,0,0-.9-2.3,4.06,4.06,0,0,0-5.7-1.18A3,3,0,0,0,260.47,52C260.51,53.62,260.48,55.24,260.48,56.85Z" transform="translate(-12.78 -10.6)"></path><path d="M174.38,73h-4.14a1.55,1.55,0,0,1-.52-.1.26.26,0,0,1-.1-.23c0-.07.08-.19.13-.19.37,0,.73-.06,1.1-.07l1,0a.43.43,0,0,0,.35-.37c0-.13,0-.27,0-.41V50.43c0-1.89.17-1.7-1.69-1.72a5.31,5.31,0,0,1-.69,0c-.07,0-.13-.09-.19-.15s.08-.29.2-.32l5.55-1.08a.32.32,0,0,1,.37.31c0,.64,0,1.28.08,1.92,0,.07.1.13.16.18s.09,0,.13,0a.2.2,0,0,0,.1-.08,1.84,1.84,0,0,0,.17-.22A5.55,5.55,0,0,1,180.77,47a7.12,7.12,0,0,1,2.59.28,5.54,5.54,0,0,1,3,2.23A8.66,8.66,0,0,1,187.83,53a14,14,0,0,1-.24,5.75,8.53,8.53,0,0,1-2,3.73,7,7,0,0,1-3.1,2,5.64,5.64,0,0,1-1.35.25c-.37,0-.73,0-1.1,0a5.5,5.5,0,0,1-3.41-.92,5.42,5.42,0,0,0-.48-.26.25.25,0,0,0-.32.16c0,.14,0,.27,0,.41q0,3.66,0,7.32a1.63,1.63,0,0,0,.06.54.51.51,0,0,0,.26.28,1.66,1.66,0,0,0,.55.07h1.93a3.58,3.58,0,0,1,.53.11c.1,0,.13.11.09.22s0,.1,0,.12a.51.51,0,0,1-.25.11c-.32,0-.64,0-1,0Zm1.41-16v4.27c0,.32,0,.64,0,1a.81.81,0,0,0,.42.67,4.7,4.7,0,0,0,2.1.62,4.41,4.41,0,0,0,3.54-1.17,5.2,5.2,0,0,0,1.3-1.76,11.28,11.28,0,0,0,.59-1.69,14.8,14.8,0,0,0,.22-5.47,7.39,7.39,0,0,0-.93-2.72,4,4,0,0,0-5.52-1.44,3.15,3.15,0,0,0-1.73,2.91C175.81,53.73,175.79,55.33,175.79,56.94Z" transform="translate(-12.78 -10.6)"></path><path d="M140,52.26v9.39c0,.37,0,.73,0,1.1,0,.7.13.82.78.83h1.52l.83,0a.41.41,0,0,1,.32.38.46.46,0,0,1-.38.34c-.18,0-.36,0-.55,0h-9a1.24,1.24,0,0,1-.8-.14.34.34,0,0,1-.12-.36c0-.11,0-.18.16-.19.28,0,.55-.07.82-.08.64,0,1.29,0,1.93,0a.44.44,0,0,0,.43-.44c0-.37,0-.74,0-1.1q0-9.87,0-19.75c0-1.68.13-1.56-1.56-1.57h-1.24l-.83,0a2.52,2.52,0,0,0-2.13,1.31L129.15,44c-.22.4-.43.81-.66,1.21a1.1,1.1,0,0,1-.28.29.46.46,0,0,1-.26.06.36.36,0,0,1-.28-.26,28.73,28.73,0,0,1,.08-4.82.58.58,0,0,1,.56-.51h18.36c1.57,0,1.61-.1,1.68,1.57.05,1.11,0,2.21.05,3.32a2,2,0,0,1,0,.41.34.34,0,0,1-.24.3.49.49,0,0,1-.49-.17c-.1-.15-.19-.31-.28-.47-.37-.69-.73-1.39-1.12-2.07a11.91,11.91,0,0,0-.75-1.15,2.11,2.11,0,0,0-1.49-.89,3.12,3.12,0,0,0-.41-.06H140.4a.41.41,0,0,0-.37.34c0,.42-.05.83-.05,1.24C140,45.63,140,49,140,52.26Z" transform="translate(-12.78 -10.6)"></path><path d="M159.57,46.93a10.43,10.43,0,0,1,2.64.37,7.23,7.23,0,0,1,4.36,3.58,9.4,9.4,0,0,1,1.07,3.69,10.73,10.73,0,0,1-.49,4.5,8,8,0,0,1-5.74,5.47,8.93,8.93,0,0,1-5.57-.27A7.42,7.42,0,0,1,151,58.4a11.63,11.63,0,0,1,.2-5.34,8.46,8.46,0,0,1,1.91-3.47A8.12,8.12,0,0,1,159.57,46.93Zm-4.92,9.31c0,.46,0,1.2.09,1.93a10.94,10.94,0,0,0,.57,2.83,6,6,0,0,0,1.24,2.12,3.6,3.6,0,0,0,5,.16,6.36,6.36,0,0,0,.87-1.07,6.66,6.66,0,0,0,.89-2.15,18.24,18.24,0,0,0,.41-6.16,13.1,13.1,0,0,0-.66-3.09,7.05,7.05,0,0,0-1-1.82,3.75,3.75,0,0,0-1.22-1.09,3.63,3.63,0,0,0-4.1.57,5.06,5.06,0,0,0-1.1,1.57,10,10,0,0,0-.68,2.09A20.8,20.8,0,0,0,154.65,56.24Z" transform="translate(-12.78 -10.6)"></path><path d="M252.31,55.69a9.91,9.91,0,0,1-.34,2.86,8.09,8.09,0,0,1-5.91,6,8.85,8.85,0,0,1-5.7-.33,7.4,7.4,0,0,1-4.7-5.55,11.12,11.12,0,0,1,.32-6.13,8.12,8.12,0,0,1,7.75-5.6,11.16,11.16,0,0,1,2.87.3,7.25,7.25,0,0,1,4.87,4.15A9.68,9.68,0,0,1,252.31,55.69Zm-3.87.18c0-.6,0-1.2-.07-1.79a11.76,11.76,0,0,0-.81-3.61,6.81,6.81,0,0,0-1-1.67,3.2,3.2,0,0,0-1.8-1.19,3.57,3.57,0,0,0-3.72,1.23,5.85,5.85,0,0,0-.8,1.28,9.34,9.34,0,0,0-.68,2.24,21.07,21.07,0,0,0,0,7.13,9.17,9.17,0,0,0,.58,2,5.84,5.84,0,0,0,.94,1.52,3.58,3.58,0,0,0,5.16.22,6.85,6.85,0,0,0,.85-1.08,6.56,6.56,0,0,0,.76-1.76A16.3,16.3,0,0,0,248.44,55.87Z" transform="translate(-12.78 -10.6)"></path><path d="M285,55.42c-1.57,0-3.13,0-4.7,0a5.66,5.66,0,0,0-.82.06.35.35,0,0,0-.28.28.5.5,0,0,0,0,.13,9.76,9.76,0,0,0,.55,3.39A5.82,5.82,0,0,0,285,63.06a6.86,6.86,0,0,0,4.28-1.28c.26-.19.52-.37.79-.54,0,0,.08,0,.11,0s.08.08.07.1a2.07,2.07,0,0,1-.23.5,7.13,7.13,0,0,1-4.33,2.76,9.87,9.87,0,0,1-4.52-.1,7,7,0,0,1-5.33-5.4,11.9,11.9,0,0,1,0-5.75,8.52,8.52,0,0,1,1.84-3.66A7.52,7.52,0,0,1,283,47a9.64,9.64,0,0,1,3.55.34,5.51,5.51,0,0,1,3.38,2.87,7.44,7.44,0,0,1,.69,2.09,10.55,10.55,0,0,1,.09,2.75.44.44,0,0,1-.36.36c-.36,0-.73,0-1.1,0Zm-1.85-.79v0l2.76-.11c.32,0,.64,0,1-.06a.48.48,0,0,0,.45-.45,11.2,11.2,0,0,0-.63-4.33,4.49,4.49,0,0,0-.51-1A2.57,2.57,0,0,0,284,47.52a3.53,3.53,0,0,0-2.94,1.24A6.32,6.32,0,0,0,280,50.64a11.8,11.8,0,0,0-.79,3.76.35.35,0,0,0,.35.34,5,5,0,0,0,.55,0Z" transform="translate(-12.78 -10.6)"></path><path d="M191.47,60.86c0-.51.06-1.11.11-1.7a.32.32,0,0,1,.19-.17.3.3,0,0,1,.25,0,1.79,1.79,0,0,1,.34.43c.33.55.64,1.11,1,1.65s.76,1.15,1.18,1.7a3.41,3.41,0,0,0,2.87,1.37,4.39,4.39,0,0,0,2-.38,3.18,3.18,0,0,0,1.7-3.7,1.43,1.43,0,0,0-.51-.8,6.33,6.33,0,0,0-1-.68c-.62-.3-1.26-.56-1.9-.8s-1.57-.55-2.33-.86c-.6-.24-1.18-.52-1.75-.81A4.56,4.56,0,0,1,192.23,55a3.09,3.09,0,0,1-.68-1.35c-.46-2.4.16-4.5,2.38-5.81a5.88,5.88,0,0,1,2.32-.83,14.22,14.22,0,0,1,5.73.45c.14,0,.27.08.4.12a.75.75,0,0,1,.58.69c0,.78.1,1.56.12,2.34a10,10,0,0,1-.06,1.1c0,.06-.11.14-.18.17a.29.29,0,0,1-.26,0,2.06,2.06,0,0,1-.35-.42c-.36-.58-.7-1.18-1.06-1.77a6.72,6.72,0,0,0-1-1.3,2.57,2.57,0,0,0-1.17-.7,4.72,4.72,0,0,0-3.48.32,3,3,0,0,0-.95.78,2.85,2.85,0,0,0-.55,2.6,1.53,1.53,0,0,0,.64.88,6.79,6.79,0,0,0,1.56.86c.73.28,1.47.53,2.2.82,1,.41,2,.83,3,1.27a4.31,4.31,0,0,1,1.64,1.23,4.13,4.13,0,0,1,1,3.33,5.34,5.34,0,0,1-2.87,4.15,6.53,6.53,0,0,1-2.47.8,15,15,0,0,1-6-.57c-.18,0-.35-.12-.52-.18a.78.78,0,0,1-.57-.7C191.58,62.5,191.53,61.73,191.47,60.86Z" transform="translate(-12.78 -10.6)"></path><path d="M294.2,61.15c0-.65,0-1.29.07-1.93,0-.07.09-.14.15-.2a.27.27,0,0,1,.36.07,2.52,2.52,0,0,1,.24.33c.22.36.41.72.63,1.07.37.59.72,1.18,1.12,1.74a9.88,9.88,0,0,0,.89,1.05A2.59,2.59,0,0,0,299,64a4.5,4.5,0,0,0,3.11-.21,3.17,3.17,0,0,0,1.86-3,1.94,1.94,0,0,0-.9-1.76,10.06,10.06,0,0,0-1.45-.77c-.72-.31-1.46-.56-2.2-.83a23.79,23.79,0,0,1-2.67-1.1,6.17,6.17,0,0,1-1.27-.83,4,4,0,0,1-1.36-3.32,6.39,6.39,0,0,1,.27-1.63,4.48,4.48,0,0,1,1.54-2.24,6,6,0,0,1,2.86-1.29,13.75,13.75,0,0,1,6.27.51,1.55,1.55,0,0,1,.36.19.43.43,0,0,1,.17.21,10,10,0,0,1,.14,3.82c0,.08-.3.17-.37.11a.87.87,0,0,1-.21-.17c-.2-.31-.39-.62-.58-.94s-.46-.79-.71-1.18a5.79,5.79,0,0,0-1-1.28,2.46,2.46,0,0,0-1.06-.63,4.64,4.64,0,0,0-3.61.34,2.94,2.94,0,0,0-1.51,2.19,2,2,0,0,0,.89,2.16,9.82,9.82,0,0,0,2,1c.69.26,1.38.49,2.07.75s1.54.62,2.29,1a6.42,6.42,0,0,1,1.09.6,4.12,4.12,0,0,1,1.84,3.51,5.12,5.12,0,0,1-2.24,4.35,6.23,6.23,0,0,1-2.91,1.17,14.81,14.81,0,0,1-6.41-.6,4.46,4.46,0,0,1-.5-.22.6.6,0,0,1-.38-.53c0-.46-.06-.92-.08-1.38,0-.27,0-.55,0-.82Z" transform="translate(-12.78 -10.6)"></path><path d="M178.69,86.41a8.9,8.9,0,0,1-.35,2.56,5.45,5.45,0,0,1-1.07,2,4.57,4.57,0,0,1-1.8,1.29,7.84,7.84,0,0,1-5.18,0,4.57,4.57,0,0,1-1.8-1.29,5.45,5.45,0,0,1-1.07-2,9,9,0,0,1-.35-2.58,8.2,8.2,0,0,1,.62-3.3,4.74,4.74,0,0,1,1.92-2.18,6.28,6.28,0,0,1,3.29-.78,6.17,6.17,0,0,1,3.26.78,4.72,4.72,0,0,1,1.91,2.18A8.3,8.3,0,0,1,178.69,86.41Zm-8.91,0a6.85,6.85,0,0,0,.32,2.2,2.67,2.67,0,0,0,2.78,1.91,3,3,0,0,0,1.79-.49,2.91,2.91,0,0,0,1-1.42,6.85,6.85,0,0,0,.32-2.2,5.46,5.46,0,0,0-.72-3,2.6,2.6,0,0,0-2.36-1.1,3,3,0,0,0-1.79.49,3,3,0,0,0-1,1.42A6.87,6.87,0,0,0,169.78,86.41Z" transform="translate(-12.78 -10.6)"></path><path d="M186.32,83a3.49,3.49,0,0,1,2.4.81,3.35,3.35,0,0,1,.91,2.61v6.09h-2.55V87.08a2.59,2.59,0,0,0-.36-1.51,1.3,1.3,0,0,0-1.14-.51,1.63,1.63,0,0,0-1.59.79,4.86,4.86,0,0,0-.43,2.29v4.39H181V83.19H183l.34,1.2h.14a2.58,2.58,0,0,1,.75-.79,3.4,3.4,0,0,1,1-.44A4.81,4.81,0,0,1,186.32,83Z" transform="translate(-12.78 -10.6)"></path><path d="M194.79,92.53h-2.54v-13h2.54Z" transform="translate(-12.78 -10.6)"></path><path d="M198.74,79.54a1.81,1.81,0,0,1,1,.26,1.38,1.38,0,0,1,0,2,1.85,1.85,0,0,1-2,0,1.4,1.4,0,0,1,0-2A1.81,1.81,0,0,1,198.74,79.54ZM200,83.19v9.34h-2.55V83.19Z" transform="translate(-12.78 -10.6)"></path><path d="M208,83a3.45,3.45,0,0,1,2.4.81,3.35,3.35,0,0,1,.91,2.61v6.09h-2.54V87.08a2.51,2.51,0,0,0-.37-1.51,1.29,1.29,0,0,0-1.13-.51,1.65,1.65,0,0,0-1.6.79,5,5,0,0,0-.42,2.29v4.39h-2.55V83.19h1.95l.34,1.2h.14a2.58,2.58,0,0,1,.75-.79,3.18,3.18,0,0,1,1-.44A4.66,4.66,0,0,1,208,83Z" transform="translate(-12.78 -10.6)"></path><path d="M217.76,83a4.71,4.71,0,0,1,2.23.5A3.45,3.45,0,0,1,221.43,85a4.74,4.74,0,0,1,.51,2.3v1.23h-6a2.4,2.4,0,0,0,.64,1.69,2.27,2.27,0,0,0,1.68.62,6.48,6.48,0,0,0,1.64-.19,8.11,8.11,0,0,0,1.53-.55v2a5.93,5.93,0,0,1-1.45.5,8.83,8.83,0,0,1-1.83.16,5.63,5.63,0,0,1-2.49-.52A3.82,3.82,0,0,1,214,90.6a5.27,5.27,0,0,1-.61-2.67,6,6,0,0,1,.55-2.73,3.76,3.76,0,0,1,1.55-1.63A4.64,4.64,0,0,1,217.76,83Zm0,1.81a1.67,1.67,0,0,0-1.23.48A2.2,2.2,0,0,0,216,86.8h3.58a2.67,2.67,0,0,0-.21-1,1.59,1.59,0,0,0-.58-.7A1.78,1.78,0,0,0,217.78,84.83Z" transform="translate(-12.78 -10.6)"></path><path d="M235.85,89.14a3.21,3.21,0,0,1-2,3.12,6.16,6.16,0,0,1-2.44.43,9.94,9.94,0,0,1-1.24-.08,8.2,8.2,0,0,1-1.16-.25,7,7,0,0,1-1.06-.4V89.55c.58.26,1.18.49,1.8.7a6.09,6.09,0,0,0,1.86.31,2.64,2.64,0,0,0,1-.17,1.19,1.19,0,0,0,.56-.46,1.24,1.24,0,0,0,.18-.67,1.11,1.11,0,0,0-.31-.78,3.27,3.27,0,0,0-.85-.61L231,87.26c-.29-.13-.6-.3-.93-.49a5.66,5.66,0,0,1-1-.7,3.35,3.35,0,0,1-.74-1,3.28,3.28,0,0,1-.29-1.43,3.41,3.41,0,0,1,.5-1.87A3.24,3.24,0,0,1,230,80.56a5.5,5.5,0,0,1,2.2-.41,7.2,7.2,0,0,1,1.82.22,12,12,0,0,1,1.81.64L235,83a14.69,14.69,0,0,0-1.51-.53,4.8,4.8,0,0,0-1.36-.19,1.92,1.92,0,0,0-.83.16,1.09,1.09,0,0,0-.51.43,1.18,1.18,0,0,0-.18.65,1.09,1.09,0,0,0,.26.73,2.73,2.73,0,0,0,.76.57c.35.18.77.4,1.28.64a10.11,10.11,0,0,1,1.6.92,3.44,3.44,0,0,1,1,1.13A3.39,3.39,0,0,1,235.85,89.14Z" transform="translate(-12.78 -10.6)"></path><path d="M240.41,79.54v2.65c0,.46,0,.9,0,1.31s-.05.72-.07.89h.14a2.87,2.87,0,0,1,.71-.79,3.07,3.07,0,0,1,.91-.44,4.46,4.46,0,0,1,2.84.21,2.61,2.61,0,0,1,1.17,1.11,4,4,0,0,1,.42,2v6.09h-2.55V87.08a2.59,2.59,0,0,0-.36-1.51,1.32,1.32,0,0,0-1.14-.51,1.86,1.86,0,0,0-1.21.35,2,2,0,0,0-.63,1,6.78,6.78,0,0,0-.18,1.69v4.39h-2.54v-13Z" transform="translate(-12.78 -10.6)"></path><path d="M257.58,87.84a6.25,6.25,0,0,1-.32,2.07,4.05,4.05,0,0,1-.91,1.53,3.92,3.92,0,0,1-1.43.94,5.35,5.35,0,0,1-1.89.31,5,5,0,0,1-1.81-.31,4.05,4.05,0,0,1-1.42-.94,4.24,4.24,0,0,1-.94-1.53,6,6,0,0,1-.33-2.07,5.71,5.71,0,0,1,.55-2.63,3.8,3.8,0,0,1,1.57-1.63,5,5,0,0,1,2.43-.56,4.74,4.74,0,0,1,2.32.56,4,4,0,0,1,1.6,1.63A5.58,5.58,0,0,1,257.58,87.84Zm-6.45,0a5,5,0,0,0,.2,1.55,1.65,1.65,0,0,0,1.73,1.26,1.79,1.79,0,0,0,1.1-.32,1.83,1.83,0,0,0,.62-.94,5.29,5.29,0,0,0,.19-1.55,5.22,5.22,0,0,0-.19-1.54,1.78,1.78,0,0,0-.62-.92,1.92,1.92,0,0,0-1.11-.31,1.61,1.61,0,0,0-1.47.7A3.83,3.83,0,0,0,251.13,87.84Z" transform="translate(-12.78 -10.6)"></path><path d="M264.87,83a3.1,3.1,0,0,1,2.55,1.23,5.65,5.65,0,0,1,1,3.59,6.76,6.76,0,0,1-.46,2.67,3.64,3.64,0,0,1-1.26,1.63,3.22,3.22,0,0,1-1.87.55,3.64,3.64,0,0,1-1.16-.17,2.79,2.79,0,0,1-.82-.44,3.61,3.61,0,0,1-.59-.58h-.14a5.06,5.06,0,0,1,.1.68c0,.24,0,.46,0,.69v3.76h-2.55V83.19h2.07l.36,1.22h.12a3.32,3.32,0,0,1,.6-.7,2.65,2.65,0,0,1,.87-.5A3.26,3.26,0,0,1,264.87,83Zm-.82,2a1.85,1.85,0,0,0-1.06.27,1.59,1.59,0,0,0-.57.83,4.8,4.8,0,0,0-.19,1.39v.28a5.54,5.54,0,0,0,.17,1.52,1.54,1.54,0,0,0,1.69,1.28,1.44,1.44,0,0,0,1-.32,2,2,0,0,0,.56-1,5.62,5.62,0,0,0,.19-1.54,3.93,3.93,0,0,0-.43-2.06A1.43,1.43,0,0,0,264.05,85.06Z" transform="translate(-12.78 -10.6)"></path></svg> 